HIERARCHY
ROOT Hips
{
	OFFSET -3.958830 18.904000 13.208200
	CHANNELS 6 Xposition Yposition Zposition Zrotation Yrotation Xrotation 
	JOINT LHipJoint
	{
		OFFSET 0.000000 0.000000 0.000000
		CHANNELS 3 Zrotation Yrotation Xrotation
		JOINT LeftUpLeg
		{
			OFFSET 1.800000 -1.400000 0.085000
			CHANNELS 3 Zrotation Yrotation Xrotation
			JOINT LeftLeg
			{
				OFFSET 2.215000 -6.000000 0.000000
				CHANNELS 3 Zrotation Yrotation Xrotation
				JOINT LeftFoot
				{
					OFFSET 2.500000 -6.900000 0.000000
					CHANNELS 3 Zrotation Yrotation Xrotation
					JOINT LeftToeBase
					{
						OFFSET 0.200000 -0.500000 1.950000
						CHANNELS 3 Zrotation Yrotation Xrotation
						End Site
						{
							OFFSET 0.000000 0.000000 0.000000
						}
					}
				}
			}
		}
	}
	JOINT RHipJoint
	{
		OFFSET 0.000000 0.000000 0.000000
		CHANNELS 3 Zrotation Yrotation Xrotation
		JOINT RightUpLeg
		{
			OFFSET -1.800000 -1.400000 0.085000
			CHANNELS 3 Zrotation Yrotation Xrotation
			JOINT RightLeg
			{
				OFFSET -2.215000 -6.000000 0.000000
				CHANNELS 3 Zrotation Yrotation Xrotation
				JOINT RightFoot
				{
					OFFSET -2.500000 -6.900000 0.000000
					CHANNELS 3 Zrotation Yrotation Xrotation
					JOINT RightToeBase
					{
						OFFSET -0.200000 -0.500000 1.950000
						CHANNELS 3 Zrotation Yrotation Xrotation
						End Site
						{
							OFFSET 0.000000 0.000000 0.000000
						}
					}
				}
			}
		}
	}
	JOINT LowerBack
	{
		OFFSET 0.000000 0.000000 0.000000
		CHANNELS 3 Zrotation Yrotation Xrotation
		JOINT Spine
		{
			OFFSET -0.087000 1.940000 -0.288900
			CHANNELS 3 Zrotation Yrotation Xrotation
			JOINT Spine1
			{
				OFFSET 0.000000 1.950000 0.060000
				CHANNELS 3 Zrotation Yrotation Xrotation
				JOINT Neck
				{
					OFFSET 0.000000 0.000000 0.000000
					CHANNELS 3 Zrotation Yrotation Xrotation
					JOINT Neck1
					{
						OFFSET 0.000000 1.600000 0.340000
						CHANNELS 3 Zrotation Yrotation Xrotation
						JOINT Head
						{
							OFFSET 0.000000 1.667000 -0.240000
							CHANNELS 3 Zrotation Yrotation Xrotation
							End Site
							{
								OFFSET 0.000000 0.000000 0.000000
							}
						}
					}
				}
				JOINT LeftShoulder
				{
					OFFSET 0.000000 0.000000 0.000000
					CHANNELS 3 Zrotation Yrotation Xrotation
					JOINT LeftArm
					{
						OFFSET 2.700000 1.550000 -0.730000
						CHANNELS 3 Zrotation Yrotation Xrotation
						JOINT LeftForeArm
						{
							OFFSET 5.450000 0.000000 0.000000
							CHANNELS 3 Zrotation Yrotation Xrotation
							JOINT LeftHand
							{
								OFFSET 3.450000 0.000000 0.000000
								CHANNELS 3 Zrotation Yrotation Xrotation
								JOINT LeftHandIndex1
								{
									OFFSET 0.750000 0.000000 0.000000
									CHANNELS 3 Zrotation Yrotation Xrotation
									End Site
									{
										OFFSET 0.000000 0.000000 0.000000
									}
								}
							}
						}
					}
				}
				JOINT RightShoulder
				{
					OFFSET 0.000000 0.000000 0.000000
					CHANNELS 3 Zrotation Yrotation Xrotation
					JOINT RightArm
					{
						OFFSET -2.700000 1.550000 -0.730000
						CHANNELS 3 Zrotation Yrotation Xrotation
						JOINT RightForeArm
						{
							OFFSET -5.450000 0.000000 0.000000
							CHANNELS 3 Zrotation Yrotation Xrotation
							JOINT RightHand
							{
								OFFSET -3.450000 0.000000 0.000000
								CHANNELS 3 Zrotation Yrotation Xrotation
								JOINT RightHandIndex1
								{
									OFFSET -0.750000 0.000000 0.000000
									CHANNELS 3 Zrotation Yrotation Xrotation
									End Site
									{
										OFFSET 0.000000 0.000000 0.000000
									}
								}
							}
						}
					}
				}
			}
		}
	}
}
MOTION
Frames: 7
Frame Time: 0.016667
-0.401420 16.381890 -2.907850 -10.896974 11.168040 -9.695186 -15.167731 10.006898 5.200364 28.217770 5.518047 -46.884133 2.746709 16.104601 59.065001 0.220033 12.020698 0.238660 -0.058660 -0.141220 -0.372950 18.781482 -9.348691 3.112274 -26.332458 13.717412 -15.712177 31.781617 -20.289764 40.803318 -1.488849 -9.756478 0.973325 0.080390 0.736550 0.131170 -4.345143 1.474995 -9.473780 -9.165675 1.410990 44.597671 -29.043616 9.888122 15.965889 10.136418 -7.746889 -15.450303 -16.252752 5.152686 42.973068 7.347860 -2.968010 -19.136190 -5.607185 -24.171746 5.251759 -15.467415 -16.940914 -12.301656 148.686566 -43.392746 -142.095498 -3.838080 2.948181 0.762950 0.179760 -0.094020 0.098840 -14.133625 37.437741 -0.122131 -13.744392 17.916086 -4.939520 -6.771892 7.106065 -0.029376 2.008675 -0.797683 -0.522490 0.786630 0.582450 -0.036830 
-0.378230 16.334840 -2.969180 -10.213586 11.078239 -9.113188 -15.199533 9.833911 5.385179 28.574683 5.084052 -47.661701 0.835063 17.352654 59.698670 0.298797 12.287607 0.169155 -0.014230 -0.074710 -0.337900 18.788430 -9.168287 3.158692 -28.249730 13.745663 -17.162417 32.275620 -20.861456 41.184812 -1.516851 -9.878371 0.919291 0.118470 0.697190 0.109380 -4.301102 1.341586 -9.570056 -8.124996 0.429738 44.942774 -29.096396 8.937988 15.968061 10.713595 -8.216050 -15.153137 -17.030726 5.387825 42.447823 5.904770 -2.726390 -19.010160 -6.368332 -25.082637 5.863228 -15.996327 -17.787344 -11.655021 151.137416 -42.693613 -146.258928 -3.812390 2.977171 0.735630 0.163540 -0.083660 0.115650 -14.380486 38.136876 -1.365427 -14.994330 18.634034 -4.993808 -6.501371 5.223138 -0.126999 2.070641 -0.761453 -0.505440 0.780580 0.535280 -0.035960 
-0.362610 16.300050 -3.020820 -9.484084 11.644521 -8.407949 -15.233627 9.652911 5.552499 28.824988 4.234359 -48.443497 -1.343376 18.412782 59.721339 0.266336 12.554395 0.066348 0.021300 -0.048570 -0.319450 18.797251 -9.004846 3.173193 -29.941280 13.290159 -18.297569 32.685972 -21.419456 41.155050 -1.506359 -9.976215 0.851777 0.173020 0.712870 0.116160 -4.258834 1.183823 -9.628199 -6.414449 -0.659419 44.751926 -28.966414 8.305159 17.082935 10.777781 -8.532982 -14.286942 -17.568225 4.871000 41.070132 6.216570 -3.658930 -19.604090 -5.739388 -24.865323 4.999447 -16.319056 -20.915943 -10.471773 151.411745 -43.905336 -146.909704 -3.856240 2.956710 0.732290 0.175430 -0.106780 0.108920 -15.142804 37.050095 -1.001007 -15.163309 19.028744 -5.142144 -8.185874 4.600414 -0.391105 2.104413 -0.784130 -0.523570 0.800970 0.551970 -0.044570 
-0.354100 16.279650 -3.063980 -8.613396 11.300295 -8.040549 -15.246415 9.504026 5.679207 29.459420 3.879144 -48.267006 -3.972050 19.788223 59.339517 0.172625 12.865209 -0.102241 0.028530 -0.081400 -0.324470 18.818192 -8.898981 3.197993 -31.233704 13.272267 -19.560466 32.371586 -21.900704 42.076372 -1.500225 -10.094535 0.763854 0.204720 0.708000 0.121560 -4.268538 1.145061 -9.676561 -5.023682 -1.295082 45.294411 -28.190531 7.559089 16.897115 10.262643 -9.057840 -13.437865 -18.420253 4.028517 39.394404 8.568620 -4.988540 -22.647150 -5.312030 -24.793576 4.554794 -16.898312 -22.860998 -9.710818 150.885722 -44.254435 -145.707065 -3.876708 2.902567 0.818390 0.144550 -0.119760 0.065010 -14.588528 36.487411 -0.726057 -17.364370 19.771539 -5.810212 -7.741783 4.317681 -0.324361 2.044574 -0.676562 -0.579020 0.818280 0.620380 -0.082790 
-0.338680 16.263850 -3.110470 -8.225744 11.134358 -8.227991 -15.222629 9.370440 5.770970 30.375499 3.372963 -47.573528 -6.419166 20.907771 58.941674 0.154205 13.100056 -0.206887 0.025000 -0.103000 -0.313430 18.863858 -8.864584 3.201545 -31.949238 13.086500 -20.629129 31.570842 -22.509088 43.483327 -1.534376 -10.216662 0.705579 0.206080 0.692050 0.121160 -4.365982 1.206790 -9.741182 -2.622534 -2.777877 46.205307 -27.869358 6.562689 17.142742 10.072427 -9.112628 -13.460580 -18.812899 3.368947 38.958544 10.068740 -5.467720 -25.354230 -4.070952 -25.325704 4.318703 -16.958323 -24.802617 -9.521843 148.037662 -43.882433 -139.728812 -3.895662 2.795112 0.893400 0.109270 -0.095970 0.035410 -15.371793 36.237387 -0.220895 -18.636342 18.788350 -6.267259 -8.099253 5.152781 -0.251316 2.010736 -0.610931 -0.610110 0.844870 0.654900 -0.106930 
-0.327050 16.260870 -3.147760 -7.274930 10.484640 -8.644339 -15.224748 9.340151 5.833424 31.385452 2.966817 -45.911295 -10.002814 22.277413 57.301904 0.229392 13.172558 -0.225119 0.107840 0.015670 -0.258630 18.868632 -8.855038 3.167175 -32.607419 12.788658 -21.354262 30.024720 -22.736118 45.106147 -1.609233 -10.272474 0.687203 0.241750 0.620990 0.106790 -4.369465 1.151965 -9.759624 -0.982613 -3.684745 47.122313 -26.887400 5.951176 17.354705 9.966275 -9.178721 -13.622829 -19.109269 2.700242 38.547187 11.090790 -5.453410 -28.580520 -2.396837 -25.939674 4.123330 -16.405955 -26.326384 -10.201806 143.195090 -43.774595 -130.553617 -3.843535 2.707080 0.931940 0.037590 -0.017080 0.064850 -16.735951 36.618464 -0.290546 -19.959527 17.749553 -6.089054 -6.989605 4.753549 -0.109443 1.998378 -0.521699 -0.569350 0.859970 0.588320 -0.099560 
-0.327060 16.258480 -3.184080 -6.200770 9.846854 -9.177963 -15.260876 9.356091 5.952971 32.656638 2.345101 -44.098206 -14.233740 23.714334 55.218605 0.285706 13.250490 -0.260625 0.167290 0.077500 -0.135670 18.836695 -8.800763 3.122616 -32.999237 12.347156 -22.260330 27.901797 -23.100353 47.511852 -1.699218 -10.370158 0.653294 0.242180 0.488740 0.089510 -4.279155 0.902859 -9.794727 0.396415 -4.487689 48.382577 -25.411480 5.062468 16.601131 10.084124 -8.972542 -13.838881 -19.504870 2.859713 40.142951 9.398750 -4.509090 -32.366820 -1.138336 -26.851658 4.170449 -15.194888 -26.905989 -11.749127 134.924636 -44.931473 -116.752686 -3.830617 2.481994 1.017040 -0.049710 0.085430 0.038710 -18.191101 37.220797 -0.803831 -21.299265 17.522391 -6.285476 -5.829024 5.391649 0.117905 1.962033 -0.420558 -0.548320 0.856210 0.529030 -0.150620 
